<svg xmlns="http://www.w3.org/2000/svg" xmlns:xlink="http://www.w3.org/1999/xlink" width="500" zoomAndPan="magnify" viewBox="0 0 375 374.999991" height="500" preserveAspectRatio="xMidYMid meet" version="1.0"><defs><g/><clipPath id="id1"><path d="M 240.671875 208.925781 L 270.84375 208.925781 L 270.84375 209.917969 L 240.671875 209.917969 Z M 240.671875 208.925781 " clip-rule="nonzero"/></clipPath><clipPath id="id2"><path d="M 120.847656 208.925781 L 137.683594 208.925781 L 137.683594 209.917969 L 120.847656 209.917969 Z M 120.847656 208.925781 " clip-rule="nonzero"/></clipPath><clipPath id="id3"><path d="M 153.195312 208.925781 L 200.070312 208.925781 L 200.070312 209.917969 L 153.195312 209.917969 Z M 153.195312 208.925781 " clip-rule="nonzero"/></clipPath><clipPath id="id4"><path d="M 171 146.917969 L 212 146.917969 L 212 187 L 171 187 Z M 171 146.917969 " clip-rule="nonzero"/></clipPath><clipPath id="id5"><path d="M 199.078125 167.144531 L 241.664062 167.144531 L 241.664062 209.917969 L 199.078125 209.917969 Z M 199.078125 167.144531 " clip-rule="nonzero"/></clipPath><clipPath id="id6"><path d="M 235 185 L 256 185 L 256 209.917969 L 235 209.917969 Z M 235 185 " clip-rule="nonzero"/></clipPath><clipPath id="id7"><path d="M 136.359375 191.683594 L 154.1875 191.683594 L 154.1875 209.917969 L 136.359375 209.917969 Z M 136.359375 191.683594 " clip-rule="nonzero"/></clipPath><clipPath id="id8"><path d="M 147 167 L 185 167 L 185 209.917969 L 147 209.917969 Z M 147 167 " clip-rule="nonzero"/></clipPath><clipPath id="id9"><path d="M 184.382812 126.050781 L 197.882812 126.050781 L 197.882812 139.550781 L 184.382812 139.550781 Z M 184.382812 126.050781 " clip-rule="nonzero"/></clipPath></defs><g fill="rgb(0%, 29.40979%, 21.179199%)" fill-opacity="1"><g transform="translate(134.312516, 188.315485)"><g><path d="M -5.699219 -12.128906 C -2.800781 -13.171875 -0.0351562 -15.109375 2.292969 -18.09375 L 1.363281 -19.019531 C -1.082031 -15.945312 -3.710938 -14.148438 -6.75 -13.136719 C -7.875 -14.042969 -9.226562 -14.730469 -10.742188 -15.265625 L -11.214844 -13.921875 C -7.128906 -12.484375 -4.089844 -9.816406 -4.335938 -2.84375 L -3.03125 -2.980469 C -2.914062 -7.300781 -3.90625 -10.15625 -5.699219 -12.128906 Z M 2.65625 0.191406 L 8.710938 -17.003906 L 7.519531 -17.421875 L 1.460938 -0.230469 Z M 2.65625 0.191406 "/></g></g></g><g fill="rgb(0%, 29.40979%, 21.179199%)" fill-opacity="1"><g transform="translate(142.143942, 167.511108)"><g><path d="M -0.996094 -13.363281 C 2.082031 -13.304688 5.359375 -14.125 8.601562 -16.085938 L 8.0625 -17.277344 C 4.683594 -15.28125 1.585938 -14.542969 -1.613281 -14.679688 C -2.34375 -15.929688 -3.359375 -17.054688 -4.582031 -18.09375 L -5.503906 -17.007812 C -2.203125 -14.203125 -0.316406 -10.632812 -3.035156 -4.207031 L -1.769531 -3.867188 C -0.117188 -7.859375 -0.0234375 -10.882812 -0.996094 -13.363281 Z M 2.410156 1.125 L 14.207031 -12.773438 L 13.242188 -13.589844 L 1.449219 0.308594 Z M 2.410156 1.125 "/></g></g></g><g fill="rgb(0%, 29.40979%, 21.179199%)" fill-opacity="1"><g transform="translate(156.886445, 150.87345)"><g><path d="M 13.300781 -12.152344 L 12.683594 -13.277344 L 0.464844 -6.570312 L -1.269531 -9.734375 L 10.945312 -16.441406 L 8.03125 -21.75 L -5.453125 -14.347656 L -4.84375 -13.242188 L 7.375 -19.949219 L 9.074219 -16.855469 L -3.144531 -10.148438 L -0.183594 -4.75 Z M 17.832031 -6.859375 L 17.222656 -7.96875 L 9.855469 -3.921875 L 7.648438 -7.949219 L 6.382812 -7.253906 L 8.589844 -3.230469 L 1.242188 0.804688 L 1.851562 1.914062 Z M 17.832031 -6.859375 "/></g></g></g><g fill="rgb(0%, 29.40979%, 21.179199%)" fill-opacity="1"><g transform="translate(177.316391, 141.129289)"><g/></g></g><g fill="rgb(0%, 29.40979%, 21.179199%)" fill-opacity="1"><g transform="translate(186.761965, 139.120632)"><g/></g></g><g fill="rgb(0%, 29.40979%, 21.179199%)" fill-opacity="1"><g transform="translate(196.406763, 138.639986)"><g/></g></g><g fill="rgb(0%, 29.40979%, 21.179199%)" fill-opacity="1"><g transform="translate(205.612863, 138.895509)"><g><path d="M 14.171875 8.625 L 15.53125 9.109375 L 21.832031 -8.570312 L 20.472656 -9.058594 Z M 13.886719 -9.636719 C 12.988281 -7.65625 11.992188 -5.988281 10.84375 -4.566406 L 4.59375 -6.792969 L 4.167969 -5.605469 L 9.96875 -3.539062 C 7.5625 -0.902344 4.59375 0.785156 0.847656 1.984375 L 1.335938 3.242188 C 7.621094 1.140625 12.128906 -1.957031 15.765625 -10.308594 L 6.960938 -13.445312 L 6.539062 -12.253906 Z M 13.886719 -9.636719 "/></g></g></g><g fill="rgb(0%, 29.40979%, 21.179199%)" fill-opacity="1"><g transform="translate(226.388822, 146.801935)"><g><path d="M 9.011719 -7.703125 C 7.566406 -6.011719 7.996094 -3.980469 10.207031 -2.09375 L 15.402344 2.351562 C 17.613281 4.242188 19.683594 4.347656 21.132812 2.65625 C 22.578125 0.964844 22.148438 -1.0625 19.9375 -2.953125 L 14.742188 -7.398438 C 12.53125 -9.289062 10.460938 -9.394531 9.011719 -7.703125 Z M 11.101562 -2.988281 C 9.59375 -4.277344 9.183594 -5.683594 10.109375 -6.765625 C 11.035156 -7.847656 12.488281 -7.664062 13.996094 -6.371094 L 19.042969 -2.058594 C 20.550781 -0.769531 20.960938 0.636719 20.035156 1.71875 C 19.109375 2.800781 17.65625 2.617188 16.148438 1.324219 Z M 10.132812 2.222656 L 7.109375 5.757812 L 8.191406 6.683594 L 11.214844 3.148438 L 17.570312 8.582031 L 18.390625 7.621094 L 4.535156 -4.222656 L 3.714844 -3.261719 Z M 11.148438 13.964844 L 11.96875 13.003906 L 1.34375 3.921875 L 4.511719 0.214844 L 3.414062 -0.722656 L -0.574219 3.941406 Z M 11.148438 13.964844 "/></g></g></g><g fill="rgb(0%, 29.40979%, 21.179199%)" fill-opacity="1"><g transform="translate(242.973141, 161.6044)"><g><path d="M 4.890625 16.039062 L 13.277344 11.472656 L 14.820312 14.308594 L 15.949219 13.695312 L 14.40625 10.859375 L 21.378906 7.0625 L 20.699219 5.8125 L 4.210938 14.785156 Z M 3.335938 11.496094 L 4.445312 10.894531 L 0.140625 2.984375 L 13.351562 -4.207031 L 17.65625 3.703125 L 18.765625 3.097656 L 13.78125 -6.0625 L -1.652344 2.335938 Z M 3.335938 11.496094 "/></g></g></g><g fill="rgb(0%, 29.40979%, 21.179199%)" fill-opacity="1"><g transform="translate(252.646405, 182.066581)"><g/></g></g><g clip-path="url(#id1)"><path fill="rgb(0%, 29.40979%, 21.179199%)" d="M 270.847656 209.9375 L 240.75 209.9375 L 241.054688 208.945312 L 270.847656 208.945312 L 270.847656 209.9375 " fill-opacity="1" fill-rule="nonzero"/></g><g clip-path="url(#id2)"><path fill="rgb(0%, 29.40979%, 21.179199%)" d="M 137.414062 209.9375 L 120.847656 209.9375 L 120.847656 208.945312 L 137.101562 208.945312 L 137.414062 209.9375 " fill-opacity="1" fill-rule="nonzero"/></g><g clip-path="url(#id3)"><path fill="rgb(0%, 29.40979%, 21.179199%)" d="M 200.046875 209.9375 L 153.425781 209.9375 L 153.726562 208.945312 L 199.742188 208.945312 L 200.046875 209.9375 " fill-opacity="1" fill-rule="nonzero"/></g><g clip-path="url(#id4)"><path fill="rgb(0%, 29.40979%, 21.179199%)" d="M 210.800781 186.855469 L 191.773438 149.113281 L 172.75 186.855469 L 171.867188 186.40625 L 191.773438 146.921875 L 211.683594 186.40625 L 210.800781 186.855469 " fill-opacity="1" fill-rule="nonzero"/></g><g clip-path="url(#id5)"><path fill="rgb(0%, 29.40979%, 21.179199%)" d="M 240.75 209.9375 L 220.398438 169.566406 L 200.046875 209.9375 L 199.300781 209.21875 L 220.398438 167.371094 L 241.496094 209.21875 L 240.75 209.9375 " fill-opacity="1" fill-rule="nonzero"/></g><g clip-path="url(#id6)"><path fill="rgb(0%, 29.40979%, 21.179199%)" d="M 254.152344 209.664062 L 243.089844 187.726562 L 236.761719 200.277344 L 235.882812 199.832031 L 243.089844 185.535156 L 255.03125 209.214844 L 254.152344 209.664062 " fill-opacity="1" fill-rule="nonzero"/></g><g clip-path="url(#id7)"><path fill="rgb(0%, 29.40979%, 21.179199%)" d="M 153.425781 209.9375 L 145.414062 194.050781 L 137.414062 209.9375 L 136.660156 209.21875 L 145.414062 191.855469 L 154.167969 209.21875 L 153.425781 209.9375 " fill-opacity="1" fill-rule="nonzero"/></g><g clip-path="url(#id8)"><path fill="rgb(0%, 29.40979%, 21.179199%)" d="M 183.371094 209.664062 L 171.867188 186.855469 L 163.152344 169.566406 L 148.550781 198.527344 L 147.671875 198.078125 L 163.152344 167.371094 L 184.25 209.214844 L 183.371094 209.664062 " fill-opacity="1" fill-rule="nonzero"/></g><path fill="rgb(0%, 29.40979%, 21.179199%)" d="M 203.707031 172.65625 L 193.414062 165.25 L 191.875 160.492188 L 190.121094 168.757812 L 187.96875 164.34375 L 181.753906 168.871094 L 181.175781 168.066406 L 188.335938 162.851562 L 189.75 165.746094 L 191.675781 156.675781 L 194.253906 164.632812 L 204.28125 171.847656 L 203.707031 172.65625 " fill-opacity="1" fill-rule="nonzero"/><path fill="rgb(0%, 29.40979%, 21.179199%)" d="M 152.027344 191.5 L 151.464844 190.683594 L 158.941406 185.476562 L 163.082031 176.605469 L 164.199219 185.53125 L 166.390625 183.222656 L 173.46875 187.972656 L 172.917969 188.796875 L 166.53125 184.507812 L 163.476562 187.726562 L 162.527344 180.128906 L 159.722656 186.140625 L 152.027344 191.5 " fill-opacity="1" fill-rule="nonzero"/><path fill="rgb(0%, 29.40979%, 21.179199%)" d="M 147.410156 205.53125 L 145.367188 200.902344 L 143.417969 204.480469 L 141.378906 200.296875 L 142.265625 199.859375 L 143.46875 202.328125 L 145.460938 198.667969 L 147.371094 202.992188 L 148.589844 199.976562 L 149.507812 200.347656 L 147.410156 205.53125 " fill-opacity="1" fill-rule="nonzero"/><path fill="rgb(0%, 29.40979%, 21.179199%)" d="M 240.265625 202.515625 L 237.378906 197.347656 L 238.242188 196.863281 L 240.160156 200.304688 L 243.011719 193.847656 L 245.929688 199.203125 L 247.722656 196.375 L 248.554688 196.90625 L 245.863281 201.148438 L 243.101562 196.082031 L 240.265625 202.515625 " fill-opacity="1" fill-rule="nonzero"/><path fill="rgb(0%, 29.40979%, 21.179199%)" d="M 209.25 191.5 L 208.6875 190.683594 L 216.164062 185.476562 L 220.308594 176.605469 L 221.421875 185.53125 L 223.613281 183.222656 L 230.691406 187.972656 L 230.144531 188.796875 L 223.753906 184.507812 L 220.703125 187.726562 L 219.753906 180.128906 L 216.945312 186.140625 L 209.25 191.5 " fill-opacity="1" fill-rule="nonzero"/><g clip-path="url(#id9)"><path fill="rgb(0%, 29.40979%, 21.179199%)" d="M 197.882812 132.800781 C 197.882812 133.246094 197.839844 133.683594 197.753906 134.117188 C 197.667969 134.554688 197.539062 134.976562 197.367188 135.386719 C 197.199219 135.792969 196.992188 136.183594 196.746094 136.550781 C 196.5 136.921875 196.21875 137.261719 195.90625 137.574219 C 195.59375 137.886719 195.25 138.167969 194.882812 138.414062 C 194.515625 138.660156 194.125 138.867188 193.714844 139.039062 C 193.304688 139.207031 192.882812 139.335938 192.449219 139.421875 C 192.015625 139.507812 191.574219 139.550781 191.132812 139.550781 C 190.6875 139.550781 190.25 139.507812 189.816406 139.421875 C 189.382812 139.335938 188.957031 139.207031 188.550781 139.039062 C 188.140625 138.867188 187.75 138.660156 187.382812 138.414062 C 187.015625 138.167969 186.671875 137.886719 186.359375 137.574219 C 186.046875 137.261719 185.765625 136.921875 185.519531 136.550781 C 185.273438 136.183594 185.066406 135.792969 184.894531 135.386719 C 184.726562 134.976562 184.597656 134.554688 184.511719 134.117188 C 184.425781 133.683594 184.382812 133.246094 184.382812 132.800781 C 184.382812 132.359375 184.425781 131.921875 184.511719 131.484375 C 184.597656 131.050781 184.726562 130.628906 184.894531 130.21875 C 185.066406 129.808594 185.273438 129.421875 185.519531 129.050781 C 185.765625 128.683594 186.046875 128.34375 186.359375 128.027344 C 186.671875 127.714844 187.015625 127.4375 187.382812 127.191406 C 187.75 126.945312 188.140625 126.734375 188.550781 126.566406 C 188.957031 126.394531 189.382812 126.269531 189.816406 126.183594 C 190.25 126.09375 190.6875 126.050781 191.132812 126.050781 C 191.574219 126.050781 192.015625 126.09375 192.449219 126.183594 C 192.882812 126.269531 193.304688 126.394531 193.714844 126.566406 C 194.125 126.734375 194.515625 126.945312 194.882812 127.191406 C 195.25 127.4375 195.59375 127.714844 195.90625 128.027344 C 196.21875 128.34375 196.5 128.683594 196.746094 129.050781 C 196.992188 129.421875 197.199219 129.808594 197.367188 130.21875 C 197.539062 130.628906 197.667969 131.050781 197.753906 131.484375 C 197.839844 131.921875 197.882812 132.359375 197.882812 132.800781 Z M 197.882812 132.800781 " fill-opacity="1" fill-rule="nonzero"/></g><g fill="rgb(78.42865%, 56.079102%, 12.548828%)" fill-opacity="1"><g transform="translate(107.588971, 233.904477)"><g><path d="M 18.5625 -2.617188 L 18.5625 -16.117188 L 2.253906 -16.117188 L 2.253906 -14.777344 L 17.03125 -14.777344 L 17.03125 -2.617188 Z M 20.070312 2.722656 L 20.070312 1.382812 L 0.746094 1.382812 L 0.746094 2.722656 Z M 20.070312 2.722656 "/></g></g></g><g fill="rgb(78.42865%, 56.079102%, 12.548828%)" fill-opacity="1"><g transform="translate(144.220728, 233.904477)"><g><path d="M 18.773438 -1.722656 L 18.773438 -16.328125 L 17.242188 -16.328125 L 17.242188 -1.722656 Z M 12.84375 -4.699219 L 12.84375 -6.039062 L 3.378906 -6.039062 L 3.378906 -9.652344 L 12.566406 -9.652344 L 12.566406 -15.90625 L 1.851562 -15.90625 L 1.851562 -14.566406 L 11.035156 -14.566406 L 11.035156 -10.992188 L 1.851562 -10.992188 L 1.851562 -4.699219 Z M 18.964844 3.570312 L 18.964844 2.234375 L 4.445312 2.234375 L 4.445312 -2.574219 L 2.933594 -2.574219 L 2.933594 3.570312 Z M 18.964844 3.570312 "/></g></g></g><g fill="rgb(78.42865%, 56.079102%, 12.548828%)" fill-opacity="1"><g transform="translate(180.852485, 233.904477)"><g><path d="M 18.710938 -4.507812 L 18.710938 -5.867188 L 3.785156 -5.867188 L 3.785156 -9.695312 L 18.347656 -9.695312 L 18.347656 -11.035156 L 3.785156 -11.035156 L 3.785156 -14.777344 L 18.5625 -14.777344 L 18.5625 -16.117188 L 2.253906 -16.117188 L 2.253906 -4.507812 Z M 20.070312 2.722656 L 20.070312 1.382812 L 11.164062 1.382812 L 11.164062 -3.488281 L 9.632812 -3.488281 L 9.632812 1.382812 L 0.746094 1.382812 L 0.746094 2.722656 Z M 20.070312 2.722656 "/></g></g></g><g fill="rgb(78.42865%, 56.079102%, 12.548828%)" fill-opacity="1"><g transform="translate(217.484242, 233.904477)"><g><path d="M 18.964844 3.570312 L 18.964844 -16.328125 L 17.457031 -16.328125 L 17.457031 3.570312 Z M 15.117188 -14.566406 L 15.117188 -15.90625 L 1.234375 -15.90625 L 1.234375 -14.566406 Z M 15.117188 2.722656 L 15.117188 1.382812 L 11.398438 1.382812 L 12.246094 -13.523438 L 10.714844 -13.523438 L 9.886719 1.382812 L 6.464844 1.382812 L 5.613281 -13.523438 L 4.105469 -13.523438 L 4.933594 1.382812 L 1.234375 1.382812 L 1.234375 2.722656 Z M 15.117188 2.722656 "/></g></g></g><g fill="rgb(78.42865%, 56.079102%, 12.548828%)" fill-opacity="1"><g transform="translate(254.115999, 233.904477)"><g><path d="M 17.625 3.570312 L 17.625 -6.550781 L 20.835938 -6.550781 L 20.835938 -7.910156 L 17.625 -7.910156 L 17.625 -16.328125 L 16.117188 -16.328125 L 16.117188 3.570312 Z M 6.867188 3.039062 C 10.3125 3.039062 12.609375 1.105469 12.609375 -1.808594 L 12.609375 -11.375 C 12.609375 -14.289062 10.3125 -16.222656 6.867188 -16.222656 C 3.421875 -16.222656 1.125 -14.289062 1.125 -11.375 L 1.125 -1.808594 C 1.125 1.105469 3.421875 3.039062 6.867188 3.039062 Z M 6.867188 1.699219 C 4.335938 1.699219 2.636719 0.210938 2.636719 -2 L 2.636719 -11.183594 C 2.636719 -13.394531 4.335938 -14.882812 6.867188 -14.882812 C 9.398438 -14.882812 11.078125 -13.394531 11.078125 -11.183594 L 11.078125 -2 C 11.078125 0.210938 9.398438 1.699219 6.867188 1.699219 Z M 6.867188 1.699219 "/></g></g></g></svg>